<svg xmlns="http://www.w3.org/2000/svg" version="1.1" xmlns:xlink="http://www.w3.org/1999/xlink" xmlns:svgjs="http://svgjs.dev/svgjs" width="2000" height="661" viewBox="0 0 2000 661"><g transform="matrix(1,0,0,1,3.657773193280377,3.8960794515176076)"><svg viewBox="0 0 396 131" data-background-color="#ffffff" preserveAspectRatio="xMidYMid meet" height="661" width="2000" xmlns="http://www.w3.org/2000/svg" xmlns:xlink="http://www.w3.org/1999/xlink"><g id="tight-bounds" transform="matrix(1,0,0,1,0.24045900903058737,0.1949752426690452)"><svg viewBox="0 0 395.52 130.61002403804454" height="130.61002403804454" width="395.52"><g><svg viewBox="0 0 548.4724370018498 181.11852290912339" height="130.61002403804454" width="395.52"><g transform="matrix(1,0,0,1,152.9524370018499,16.095982400356917)"><svg viewBox="0 0 395.52 148.92655810840955" height="148.92655810840955" width="395.52"><g id="textblocktransform"><svg viewBox="0 0 395.52 148.92655810840955" height="148.92655810840955" width="395.52" id="textblock"><g><svg viewBox="0 0 395.52 148.92655810840955" height="148.92655810840955" width="395.52"><g transform="matrix(1,0,0,1,0,0)"><svg width="395.52" viewBox="83.52000000000001 -34.8 224.15 78" height="148.92655810840955" data-palette-color="#000000"><svg></svg><svg></svg><g class="wordmark-text-0" data-fill-palette-color="primary" id="text-0"><path transform="translate(82.12,0)" d="M19.05-18.45c4.533 1.133 6.8 3.867 6.8 8.2v0c0 3.6-1.233 6.207-3.7 7.82-2.467 1.62-5.817 2.43-10.05 2.43v0h-10.7v-34.8h9.6c4.3 0 7.65 0.75 10.05 2.25 2.4 1.5 3.6 3.75 3.6 6.75v0c0 1.933-0.523 3.523-1.57 4.77-1.053 1.253-2.397 2.113-4.03 2.58zM11.9-28h-0.6v6.75h0.55c1.133 0 1.9-0.293 2.3-0.88 0.4-0.58 0.6-1.47 0.6-2.67v0c0-2.133-0.95-3.2-2.85-3.2zM12.2-7c2.4 0 3.6-1.317 3.6-3.95v0c0-1.333-0.257-2.333-0.77-3-0.52-0.667-1.397-1-2.63-1v0h-1.1v7.95zM49.6-13.7c0 0.833-0.067 1.85-0.2 3.05v0h-13.25c0.167 1.933 0.543 3.233 1.13 3.9 0.58 0.667 1.437 1 2.57 1v0c0.833 0 1.65-0.177 2.45-0.53 0.8-0.347 1.7-0.887 2.7-1.62v0l3.75 5c-1.167 1.167-2.567 2.107-4.2 2.82-1.633 0.72-3.45 1.08-5.45 1.08v0c-4.1 0-7.183-1.277-9.25-3.83-2.067-2.547-3.1-6.02-3.1-10.42v0c0-4.367 0.983-7.867 2.95-10.5 1.967-2.633 4.817-3.95 8.55-3.95v0c3.467 0 6.227 1.183 8.28 3.55 2.047 2.367 3.07 5.85 3.07 10.45zM40.35-16v-0.4c0-1.9-0.133-3.267-0.4-4.1-0.267-0.833-0.8-1.25-1.6-1.25v0c-0.733 0-1.273 0.39-1.62 1.17-0.353 0.787-0.563 2.313-0.63 4.58v0zM64.8-7l3 5.75c-0.933 0.733-2.033 1.293-3.3 1.68-1.267 0.38-2.517 0.57-3.75 0.57v0c-2.933 0-5.117-0.827-6.55-2.48-1.433-1.647-2.15-3.853-2.15-6.62v0-12.15h-2.25v-6.45h2.25v-5.65l9.5-1.1v6.75h4.85l-0.95 6.45h-3.9v12.05c0 0.567 0.133 1 0.4 1.3 0.267 0.3 0.617 0.45 1.05 0.45v0c0.533 0 1.133-0.183 1.8-0.55zM81.65-7l3 5.75c-0.933 0.733-2.033 1.293-3.3 1.68-1.267 0.38-2.517 0.57-3.75 0.57v0c-2.933 0-5.117-0.827-6.55-2.48-1.433-1.647-2.15-3.853-2.15-6.62v0-12.15h-2.25v-6.45h2.25v-5.65l9.5-1.1v6.75h4.85l-0.95 6.45h-3.9v12.05c0 0.567 0.133 1 0.4 1.3 0.267 0.3 0.617 0.45 1.05 0.45v0c0.533 0 1.133-0.183 1.8-0.55zM107.3-13.7c0 0.833-0.067 1.85-0.2 3.05v0h-13.25c0.167 1.933 0.54 3.233 1.12 3.9 0.587 0.667 1.447 1 2.58 1v0c0.833 0 1.65-0.177 2.45-0.53 0.8-0.347 1.7-0.887 2.7-1.62v0l3.75 5c-1.167 1.167-2.567 2.107-4.2 2.82-1.633 0.72-3.45 1.08-5.45 1.08v0c-4.1 0-7.183-1.277-9.25-3.83-2.067-2.547-3.1-6.02-3.1-10.42v0c0-4.367 0.983-7.867 2.95-10.5 1.967-2.633 4.817-3.95 8.55-3.95v0c3.467 0 6.223 1.183 8.27 3.55 2.053 2.367 3.08 5.85 3.08 10.45zM98.05-16v-0.4c0-1.9-0.133-3.267-0.4-4.1-0.267-0.833-0.8-1.25-1.6-1.25v0c-0.733 0-1.277 0.39-1.63 1.17-0.347 0.787-0.553 2.313-0.62 4.58v0zM123.7-27.55c0.733 0 1.45 0.15 2.15 0.45v0l-1.55 9.1c-0.6-0.2-1.233-0.3-1.9-0.3v0c-1.2 0-2.057 0.423-2.57 1.27-0.52 0.853-0.93 2.097-1.23 3.73v0 13.3h-9.5v-26.7h8.3l0.65 4.15c1.2-3.333 3.083-5 5.65-5zM152.9-27.7c1.733 0 3.123 0.683 4.17 2.05 1.053 1.367 1.58 3.2 1.58 5.5v0 20.15h-9.3v-19.3c0-0.433-0.043-0.75-0.13-0.95-0.08-0.2-0.237-0.3-0.47-0.3v0c-0.5 0-1.033 0.6-1.6 1.8v0 18.75h-9.2v-19.3c0-0.433-0.043-0.75-0.13-0.95-0.08-0.2-0.237-0.3-0.47-0.3v0c-0.5 0-1.033 0.6-1.6 1.8v0 18.75h-9.3v-26.7h8.3l0.55 2.8c0.9-1.3 1.857-2.26 2.87-2.88 1.02-0.613 2.147-0.92 3.38-0.92v0c1.133 0 2.133 0.34 3 1.02 0.867 0.687 1.533 1.663 2 2.93v0c0.9-1.367 1.86-2.367 2.88-3 1.013-0.633 2.17-0.95 3.47-0.95zM183.4-13.7c0 0.833-0.067 1.85-0.2 3.05v0h-13.25c0.167 1.933 0.54 3.233 1.12 3.9 0.587 0.667 1.447 1 2.58 1v0c0.833 0 1.65-0.177 2.45-0.53 0.8-0.347 1.7-0.887 2.7-1.62v0l3.75 5c-1.167 1.167-2.567 2.107-4.2 2.82-1.633 0.72-3.45 1.08-5.45 1.08v0c-4.1 0-7.183-1.277-9.25-3.83-2.067-2.547-3.1-6.02-3.1-10.42v0c0-4.367 0.983-7.867 2.95-10.5 1.967-2.633 4.817-3.95 8.55-3.95v0c3.467 0 6.223 1.183 8.27 3.55 2.053 2.367 3.08 5.85 3.08 10.45zM174.15-16v-0.4c0-1.9-0.133-3.267-0.4-4.1-0.267-0.833-0.8-1.25-1.6-1.25v0c-0.733 0-1.273 0.39-1.62 1.17-0.353 0.787-0.563 2.313-0.63 4.58v0zM200.6-27.7c1.867 0 3.333 0.673 4.4 2.02 1.067 1.353 1.6 3.197 1.6 5.53v0 20.15h-9.5v-19.25c0-0.833-0.183-1.25-0.55-1.25v0c-0.4 0-1.017 0.717-1.85 2.15v0 18.35h-9.5v-26.7h8.3l0.65 2.65c0.9-1.267 1.86-2.193 2.88-2.78 1.013-0.58 2.203-0.87 3.57-0.87zM222.55-7l3 5.75c-0.933 0.733-2.033 1.293-3.3 1.68-1.267 0.38-2.517 0.57-3.75 0.57v0c-2.933 0-5.117-0.827-6.55-2.48-1.433-1.647-2.15-3.853-2.15-6.62v0-12.15h-2.25v-6.45h2.25v-5.65l9.5-1.1v6.75h4.85l-0.95 6.45h-3.9v12.05c0 0.567 0.133 1 0.4 1.3 0.267 0.3 0.617 0.45 1.05 0.45v0c0.533 0 1.133-0.183 1.8-0.55z" fill="#000000" fill-rule="nonzero" stroke="none" stroke-width="1" stroke-linecap="butt" stroke-linejoin="miter" stroke-miterlimit="10" stroke-dasharray="" stroke-dashoffset="0" font-family="none" font-weight="none" font-size="none" text-anchor="none" style="mix-blend-mode: normal" data-fill-palette-color="primary" opacity="1"></path><path transform="translate(97.1,42.2)" d="M19.05-18.45c4.533 1.133 6.8 3.867 6.8 8.2v0c0 3.6-1.233 6.207-3.7 7.82-2.467 1.62-5.817 2.43-10.05 2.43v0h-10.7v-34.8h9.6c4.3 0 7.65 0.75 10.05 2.25 2.4 1.5 3.6 3.75 3.6 6.75v0c0 1.933-0.523 3.523-1.57 4.77-1.053 1.253-2.397 2.113-4.03 2.58zM11.9-28h-0.6v6.75h0.55c1.133 0 1.9-0.293 2.3-0.88 0.4-0.58 0.6-1.47 0.6-2.67v0c0-2.133-0.95-3.2-2.85-3.2zM12.2-7c2.4 0 3.6-1.317 3.6-3.95v0c0-1.333-0.257-2.333-0.77-3-0.52-0.667-1.397-1-2.63-1v0h-1.1v7.95zM38.55-27.7c3.7 0 6.593 1.19 8.68 3.57 2.08 2.387 3.12 5.997 3.12 10.83v0c0 4.633-1.04 8.173-3.12 10.62-2.087 2.453-4.98 3.68-8.68 3.68v0c-3.7 0-6.59-1.183-8.67-3.55-2.087-2.367-3.13-5.983-3.13-10.85v0c0-4.633 1.043-8.177 3.13-10.63 2.08-2.447 4.97-3.67 8.67-3.67zM38.55-20.85c-0.767 0-1.31 0.533-1.63 1.6-0.313 1.067-0.47 3.017-0.47 5.85v0c0 2 0.067 3.55 0.2 4.65 0.133 1.1 0.35 1.867 0.65 2.3 0.3 0.433 0.717 0.65 1.25 0.65v0c0.767 0 1.307-0.543 1.62-1.63 0.32-1.08 0.48-3.037 0.48-5.87v0c0-2-0.067-3.543-0.2-4.63-0.133-1.08-0.35-1.837-0.65-2.27-0.3-0.433-0.717-0.65-1.25-0.65zM63.55-27.7c3.7 0 6.59 1.19 8.67 3.57 2.087 2.387 3.13 5.997 3.13 10.83v0c0 4.633-1.043 8.173-3.13 10.62-2.08 2.453-4.97 3.68-8.67 3.68v0c-3.7 0-6.59-1.183-8.67-3.55-2.087-2.367-3.13-5.983-3.13-10.85v0c0-4.633 1.043-8.177 3.13-10.63 2.08-2.447 4.97-3.67 8.67-3.67zM63.55-20.85c-0.767 0-1.31 0.533-1.63 1.6-0.313 1.067-0.47 3.017-0.47 5.85v0c0 2 0.067 3.55 0.2 4.65 0.133 1.1 0.35 1.867 0.65 2.3 0.3 0.433 0.717 0.65 1.25 0.65v0c0.767 0 1.307-0.543 1.62-1.63 0.32-1.08 0.48-3.037 0.48-5.87v0c0-2-0.067-3.543-0.2-4.63-0.133-1.08-0.35-1.837-0.65-2.27-0.3-0.433-0.717-0.65-1.25-0.65zM77.4-37.2l9.5-1v38.2h-9.5zM92.6-26.7h8.9l-5.35 11.7 5.5 15h-9.85l-4.75-14.6zM124.45-35.8c3.8 0 7.083 1.35 9.85 4.05v0l-4.45 5.3c-0.8-0.7-1.557-1.243-2.27-1.63-0.72-0.38-1.48-0.57-2.28-0.57v0c-1.567 0-2.723 0.867-3.47 2.6-0.753 1.733-1.13 4.583-1.13 8.55v0c0 3.933 0.377 6.757 1.13 8.47 0.747 1.72 1.887 2.58 3.42 2.58v0c0.9 0 1.71-0.193 2.43-0.58 0.713-0.38 1.62-1.02 2.72-1.92v0l4.2 5.2c-1.3 1.4-2.817 2.54-4.55 3.42-1.733 0.887-3.667 1.33-5.8 1.33v0c-4.233 0-7.59-1.56-10.07-4.68-2.487-3.113-3.73-7.72-3.73-13.82v0c0-3.967 0.583-7.317 1.75-10.05 1.167-2.733 2.8-4.793 4.9-6.18 2.1-1.38 4.55-2.07 7.35-2.07zM143.25 1c-2.5 0-4.423-0.71-5.77-2.13-1.353-1.413-2.03-3.353-2.03-5.82v0-30.25l9.5-1v30.75c0 0.667 0.283 1 0.85 1v0c0.2 0 0.433-0.033 0.7-0.1v0l1.6 6.55c-1.467 0.667-3.083 1-4.85 1zM169.7-26.7v26.7h-8.35l-0.3-2.65c-0.8 1.2-1.707 2.11-2.72 2.73-1.02 0.613-2.197 0.92-3.53 0.92v0c-1.967 0-3.5-0.727-4.6-2.18-1.1-1.447-1.65-3.387-1.65-5.82v0-19.7h9.5v19.45c0 0.867 0.233 1.3 0.7 1.3v0c0.467 0 0.95-0.583 1.45-1.75v0-19zM187.7-27.7c5.267 0 7.9 4.8 7.9 14.4v0c0 4.4-0.783 7.883-2.35 10.45-1.567 2.567-3.733 3.85-6.5 3.85v0c-1.167 0-2.223-0.283-3.17-0.85-0.953-0.567-1.747-1.367-2.38-2.4v0l-0.35 2.25h-8.45v-37.2l9.5-1v13.55c0.633-0.933 1.46-1.677 2.48-2.23 1.013-0.547 2.12-0.82 3.32-0.82zM183.75-5.75c0.733 0 1.283-0.527 1.65-1.58 0.367-1.047 0.55-3.037 0.55-5.97v0c0-3.1-0.157-5.133-0.47-6.1-0.32-0.967-0.763-1.45-1.33-1.45v0c-0.733 0-1.483 0.7-2.25 2.1v0 11.4c0.533 1.067 1.15 1.6 1.85 1.6z" fill="#000000" fill-rule="nonzero" stroke="none" stroke-width="1" stroke-linecap="butt" stroke-linejoin="miter" stroke-miterlimit="10" stroke-dasharray="" stroke-dashoffset="0" font-family="none" font-weight="none" font-size="none" text-anchor="none" style="mix-blend-mode: normal" data-fill-palette-color="primary" opacity="1"></path></g></svg></g></svg></g></svg></g></svg></g><g><svg viewBox="0 0 136.62313538603905 181.11852290912339" height="181.11852290912339" width="136.62313538603905"><g><svg version="1.1" xmlns="http://www.w3.org/2000/svg" xmlns:xlink="http://www.w3.org/1999/xlink" x="0" y="0" viewBox="0 0 75.433 100" enable-background="new 0 0 75.433 100" xml:space="preserve" id="icon-0" width="136.62313538603905" height="181.11852290912339" class="icon-icon-0" data-fill-palette-color="accent"><path fill="#facc15" d="M8.431 8.148" data-fill-palette-color="accent"></path><path fill="#facc15" d="M71.862 0H9.725C7.761 0 4.947 1.064 3.473 2.362L2.681 3.06C1.206 4.36 0 7.031 0 8.995V96.428A3.583 3.583 0 0 0 3.572 100H65.704A3.58 3.58 0 0 0 69.276 96.428V11.722A3.58 3.58 0 0 0 65.704 8.15H24.172A2.352 2.352 0 1 0 19.469 8.15V32.667L13.552 26.89 8.432 32.667V8.148H3.572C3.546 8.148 3.523 8.154 3.497 8.156L7.34 3.755H71.803V93.04H71.86A3.585 3.585 0 0 0 75.433 89.468V3.573A3.58 3.58 0 0 0 71.862 0" data-fill-palette-color="accent"></path></svg></g></svg></g></svg></g><defs></defs></svg><rect width="395.52" height="130.61002403804454" fill="none" stroke="none" visibility="hidden"></rect></g></svg></g></svg>